<svg width="192" height="35" viewBox="0 0 192 35" fill="none" xmlns="http://www.w3.org/2000/svg">
<path d="M71.8227 26.6676L67.143 7.33241H71.5857L73.5405 16.6122L74.6364 21.9861H74.7252L76.0284 16.6122L78.309 7.33241H83.2257L85.5359 16.6122L86.8094 21.9861H86.8983L87.9942 16.6122L89.9786 7.33241H94.2436L89.4455 26.6676H84.3215L81.7151 16.1967L80.7081 11.9584H80.6193L79.5826 16.1967L76.9762 26.6676H71.8227Z" fill="#191C1F"/>
<path d="M104.972 27C103.609 27 102.365 26.7876 101.24 26.3629C100.114 25.9381 99.1568 25.3102 98.367 24.4792C97.5772 23.6297 96.9651 22.5863 96.5307 21.349C96.0963 20.0933 95.8791 18.6436 95.8791 17C95.8791 15.3564 96.0963 13.916 96.5307 12.6787C96.9651 11.4229 97.5772 10.3795 98.367 9.54848C99.1568 8.69898 100.114 8.06187 101.24 7.63712C102.365 7.21237 103.609 7 104.972 7C106.334 7 107.578 7.21237 108.704 7.63712C109.829 8.06187 110.787 8.69898 111.577 9.54848C112.366 10.3795 112.979 11.4229 113.413 12.6787C113.847 13.916 114.065 15.3564 114.065 17C114.065 18.6436 113.847 20.0933 113.413 21.349C112.979 22.5863 112.366 23.6297 111.577 24.4792C110.787 25.3102 109.829 25.9381 108.704 26.3629C107.578 26.7876 106.334 27 104.972 27ZM104.972 23.2604C106.334 23.2604 107.391 22.8449 108.141 22.0138C108.911 21.1828 109.296 19.9917 109.296 18.4404V15.5596C109.296 14.0083 108.911 12.8172 108.141 11.9861C107.391 11.1551 106.334 10.7396 104.972 10.7396C103.609 10.7396 102.543 11.1551 101.773 11.9861C101.023 12.8172 100.648 14.0083 100.648 15.5596V18.4404C100.648 19.9917 101.023 21.1828 101.773 22.0138C102.543 22.8449 103.609 23.2604 104.972 23.2604Z" fill="#191C1F"/>
<path d="M122.324 26.6676H117.822V7.33241H127.626C128.574 7.33241 129.432 7.48015 130.203 7.77562C130.973 8.0711 131.624 8.49585 132.157 9.04986C132.71 9.58541 133.135 10.2318 133.431 10.9889C133.727 11.7461 133.875 12.5863 133.875 13.5097C133.875 14.8209 133.559 15.9658 132.927 16.9446C132.315 17.9234 131.377 18.6343 130.114 19.0776L134.171 26.6676H129.166L125.553 19.5762H122.324V26.6676ZM127.063 16.0305C127.734 16.0305 128.258 15.8735 128.633 15.5596C129.028 15.2271 129.225 14.747 129.225 14.1191V12.9003C129.225 12.2724 129.028 11.8015 128.633 11.4875C128.258 11.1551 127.734 10.9889 127.063 10.9889H122.324V16.0305H127.063Z" fill="#191C1F"/>
<path d="M144.977 18.2465L142.282 21.2936V26.6676H137.78V7.33241H142.282V16.5291H142.459L145.392 12.7895L150.042 7.33241H155.136L148.176 15.2825L155.758 26.6676H150.456L144.977 18.2465Z" fill="#191C1F"/>
<path d="M158.402 26.6676V7.33241H172.471V11.072H162.904V15.0332H171.109V18.7452H162.904V22.928H172.471V26.6676H158.402Z" fill="#191C1F"/>
<path d="M183.087 27C181.27 27 179.73 26.7138 178.466 26.1413C177.203 25.5503 176.127 24.7932 175.238 23.8698L178.2 21.072C179.602 22.5494 181.33 23.2881 183.383 23.2881C184.489 23.2881 185.308 23.0757 185.841 22.651C186.374 22.2262 186.641 21.663 186.641 20.9612C186.641 20.4257 186.483 19.9825 186.167 19.6316C185.851 19.2622 185.21 19.0129 184.242 18.8837L182.198 18.6343C180.007 18.3758 178.397 17.7572 177.371 16.7784C176.364 15.7996 175.86 14.4977 175.86 12.8726C175.86 12.0046 176.038 11.2105 176.393 10.4903C176.749 9.77008 177.252 9.15143 177.904 8.63435C178.575 8.11727 179.385 7.72022 180.332 7.44321C181.3 7.14774 182.396 7 183.62 7C185.18 7 186.552 7.23084 187.737 7.69252C188.922 8.1542 189.939 8.82825 190.788 9.71468L187.796 12.5402C187.303 12.0046 186.7 11.5706 185.989 11.2382C185.298 10.8873 184.42 10.7119 183.353 10.7119C182.346 10.7119 181.596 10.8781 181.102 11.2105C180.609 11.5429 180.362 12.0046 180.362 12.5956C180.362 13.2604 180.55 13.7405 180.925 14.036C181.32 14.3315 181.952 14.5439 182.82 14.6731L184.864 14.9778C186.996 15.2918 188.576 15.9104 189.603 16.8338C190.63 17.7387 191.143 19.0314 191.143 20.7119C191.143 21.6353 190.965 22.4848 190.61 23.2604C190.254 24.036 189.731 24.7008 189.04 25.2548C188.369 25.8089 187.53 26.2428 186.523 26.5568C185.516 26.8523 184.37 27 183.087 27Z" fill="#191C1F"/>
<path d="M43.7735 35H37.0417C35.803 35 34.8719 34.3337 34.4789 33.1633L30.6175 22.1089H26.6109L22.7496 33.1633C22.3566 34.3251 21.4254 35 20.1867 35H13.4379C12.1992 35 11.268 34.3337 10.875 33.1718L6.9197 22.1089H4.1689C3.22919 22.1089 2.38345 21.5365 2.05028 20.6737L0.649255 17.248C0.367342 16.5389 0.461313 15.7359 0.888455 15.1037C1.3156 14.4801 2.01611 14.1042 2.76788 14.1042H4.07493L0.179399 3.19502C0.0170855 2.84476 0 2.49451 0 2.25531C0 1.90505 0.0854285 1.53771 0.247742 1.16183L0.290457 1.05931L0.350256 0.965341C0.589456 0.606542 1.16183 0.00854271 2.32365 0.00854271H8.82475C10.1233 0.00854271 11.0886 0.743226 11.4047 1.98194L15.3344 14.1042H18.9651L23.134 1.92214C23.5355 0.717598 24.4923 0 25.6969 0H31.4376C32.6422 0 33.599 0.717598 34.0005 1.92214L38.1694 14.1042H41.8086L45.7554 1.93922C46.1655 0.717598 47.0967 0.0170854 48.3183 0.0170854H54.8194C55.5711 0.0170854 56.2289 0.324627 56.639 0.871369C56.9209 1.196 57.0405 1.5548 57.0832 1.75128C57.1259 1.90505 57.143 2.05882 57.143 2.20405C57.143 2.32365 57.143 2.52014 57.0918 2.74225C57.0661 2.87894 57.0234 3.01562 56.9636 3.14376L53.0766 14.1128H54.452C55.1782 14.1128 55.8701 14.463 56.2973 15.0439C56.7244 15.6248 56.8526 16.3937 56.639 17.0857L55.5455 20.5284C55.2294 21.4767 54.3495 22.1089 53.3671 22.1089H50.2404L46.3107 33.2316L46.2851 33.2829C45.6017 34.7779 44.4142 35 43.7735 35ZM36.9478 32.4286C36.9649 32.4286 36.999 32.4371 37.0503 32.4371H43.7735C43.7991 32.4371 43.8162 32.4371 43.8247 32.4371C43.8418 32.4201 43.8845 32.3773 43.9358 32.2663L48.4464 19.5546H53.1877L54.1018 16.6842H49.4716L54.4691 2.58848H48.3183C48.2926 2.58848 48.2756 2.58848 48.2585 2.58848C48.2414 2.61411 48.2158 2.66536 48.1816 2.75079L43.671 16.6842H36.3412L31.5743 2.75934C31.5401 2.65682 31.506 2.60557 31.4889 2.58848C31.4804 2.58848 31.4633 2.58848 31.4376 2.58848H25.6969C25.6712 2.58848 25.6541 2.58848 25.6371 2.58848C25.62 2.61411 25.5858 2.66536 25.5602 2.75934V2.76788L20.7933 16.6842H13.4635L8.93581 2.63974C8.92726 2.61411 8.91872 2.58848 8.91872 2.57139C8.90164 2.57139 8.86746 2.56285 8.83329 2.56285H2.67391L7.70564 16.6585H3.17794L4.36539 19.5289H8.73078L13.3012 32.3261C13.3183 32.3688 13.3268 32.3944 13.3354 32.4115C13.3525 32.4115 13.3866 32.4201 13.4379 32.4201H20.1867C20.2294 32.4201 20.2636 32.4201 20.2892 32.4115C20.2978 32.3944 20.3063 32.3688 20.3234 32.3261L20.3319 32.309L24.7999 19.5289H32.4457L36.9136 32.3261C36.9221 32.3859 36.9392 32.4115 36.9478 32.4286ZM41.1167 24.5692H39.0493L37.3322 19.546H42.7483L41.1167 24.5692ZM18.1023 24.5692H16.0349L14.4118 19.546H19.8279L18.1023 24.5692ZM31.4291 16.6671H25.7908L27.6275 11.4047H29.5838L31.4291 16.6671Z" fill="#2EAC51"/>
</svg>
